<svg width="22" height="24" viewBox="0 0 22 24" fill="none" xmlns="http://www.w3.org/2000/svg">
<path d="M7.54834 0.706301C6.87033 1.12485 5.94578 2.43282 5.45268 3.63615C4.6514 5.67659 5.02123 7.71702 7.11688 12.3211C7.30179 12.7396 2.67903 15.8264 0.028641 17.0298C-0.217906 17.1344 1.19974 23.6743 1.50793 23.9358C1.87775 24.3544 4.71304 22.6802 7.73325 20.2212L11 17.6053L14.2668 20.2212C17.287 22.6802 20.1223 24.3544 20.4921 23.9358C20.8003 23.6743 22.2179 17.1344 21.9714 17.0298C19.321 15.8264 14.6982 12.7396 14.8831 12.3211C16.9788 7.71702 17.3486 5.67659 16.5473 3.63615C16.0542 2.43282 15.1297 1.12485 14.4517 0.706301C12.8491 -0.235437 9.15089 -0.235437 7.54834 0.706301ZM13.4655 2.17123C13.4655 3.2176 13.1573 3.37456 11 3.37456C8.84271 3.37456 8.53453 3.2176 8.53453 2.17123C8.53453 1.17717 8.84271 1.02021 11 1.02021C13.1573 1.02021 13.4655 1.17717 13.4655 2.17123ZM9.70563 8.24021C11.3082 11.1177 17.2253 16.3496 19.6292 16.9774C20.7386 17.2914 20.8619 17.6053 20.4921 19.2272C19.8141 22.5232 19.5059 22.6802 16.7939 20.9014C10.6302 16.7682 5.39105 8.5018 6.43887 4.52557L6.87033 2.85137L7.4867 4.15934C7.85652 4.8918 8.84271 6.72296 9.70563 8.24021ZM15.0064 8.7634L13.9586 11.6409L12.7258 10.5946C11.6164 9.6005 11.5547 9.39122 12.4176 8.29253C12.9107 7.61238 13.712 6.09514 14.1435 4.94412L14.8831 2.85137L15.4995 4.36862C15.9309 5.51963 15.8077 6.61832 15.0064 8.7634ZM12.8491 4.68253C12.8491 5.46731 11.4315 7.82166 11 7.82166C10.5685 7.82166 9.15089 5.46731 9.15089 4.68253C9.15089 4.36862 10.0138 4.15934 11 4.15934C12.0478 4.15934 12.8491 4.36862 12.8491 4.68253ZM9.39744 17.553C8.90435 18.1808 7.17852 19.5411 5.57596 20.5874C2.49412 22.6802 2.18593 22.5756 1.50793 19.3318C1.1381 17.6053 1.32301 17.396 3.29539 16.5066C4.46649 15.9834 5.88414 15.0416 6.50051 14.5185C7.54834 13.5244 7.60997 13.5244 8.90435 14.937C10.1371 16.245 10.1987 16.4543 9.39744 17.553Z" fill="#1B1B1B"/>
</svg>
