<svg width="7" height="14" viewBox="0 0 7 14" fill="none" xmlns="http://www.w3.org/2000/svg">
<path d="M0.993352 13.9982C0.761661 13.9987 0.537126 13.9175 0.358724 13.7687C0.258315 13.6849 0.175316 13.5821 0.114479 13.466C0.0536416 13.3499 0.0161625 13.2229 0.00418798 13.0922C-0.00778654 12.9615 0.00597898 12.8297 0.0446958 12.7044C0.0834126 12.5791 0.146319 12.4626 0.229814 12.3618L4.67221 7.01368L0.388472 1.65557C0.306104 1.5535 0.244592 1.43607 0.207475 1.31001C0.170357 1.18395 0.158365 1.05175 0.172187 0.921013C0.186009 0.790274 0.225373 0.663573 0.288017 0.548193C0.35066 0.432812 0.435349 0.331026 0.537213 0.248686C0.639811 0.157851 0.75996 0.0893352 0.89012 0.0474391C1.02028 0.00554297 1.15764 -0.00882886 1.29359 0.00522486C1.42953 0.0192786 1.56112 0.0614548 1.68009 0.129107C1.79907 0.196758 1.90286 0.288425 1.98496 0.398354L6.77442 6.38508C6.92027 6.56361 7 6.78756 7 7.01867C7 7.24979 6.92027 7.47373 6.77442 7.65227L1.81639 13.639C1.71691 13.7597 1.59055 13.8552 1.44755 13.9176C1.30455 13.98 1.14894 14.0076 0.993352 13.9982Z" fill="#BF1523"/>
</svg>
