<svg width="18" height="20" viewBox="0 0 18 20" fill="none" xmlns="http://www.w3.org/2000/svg">
<path fill-rule="evenodd" clip-rule="evenodd" d="M3 2H15C15.2652 2 15.5196 2.10536 15.7071 2.29289C15.8946 2.48043 16 2.73478 16 3V6H2V3C2 2.73478 2.10536 2.48043 2.29289 2.29289C2.48043 2.10536 2.73478 2 3 2ZM16 17V8H2V17C2 17.2652 2.10536 17.5196 2.29289 17.7071C2.48043 17.8946 2.73478 18 3 18H15C15.2652 18 15.5196 17.8946 15.7071 17.7071C15.8946 17.5196 16 17.2652 16 17ZM0 3C0 2.20435 0.316071 1.44129 0.87868 0.87868C1.44129 0.316071 2.20435 0 3 0H15C15.7956 0 16.5587 0.316071 17.1213 0.87868C17.6839 1.44129 18 2.20435 18 3V17C18 17.7956 17.6839 18.5587 17.1213 19.1213C16.5587 19.6839 15.7956 20 15 20H3C2.20435 20 1.44129 19.6839 0.87868 19.1213C0.316071 18.5587 0 17.7956 0 17V3ZM4 3C3.73478 3 3.48043 3.10536 3.29289 3.29289C3.10536 3.48043 3 3.73478 3 4C3 4.26522 3.10536 4.51957 3.29289 4.70711C3.48043 4.89464 3.73478 5 4 5H6C6.26522 5 6.51957 4.89464 6.70711 4.70711C6.89464 4.51957 7 4.26522 7 4C7 3.73478 6.89464 3.48043 6.70711 3.29289C6.51957 3.10536 6.26522 3 6 3H4ZM11 5C11.2652 5 11.5196 4.89464 11.7071 4.70711C11.8946 4.51957 12 4.26522 12 4C12 3.73478 11.8946 3.48043 11.7071 3.29289C11.5196 3.10536 11.2652 3 11 3C10.7348 3 10.4804 3.10536 10.2929 3.29289C10.1054 3.48043 10 3.73478 10 4C10 4.26522 10.1054 4.51957 10.2929 4.70711C10.4804 4.89464 10.7348 5 11 5ZM15 4C15 4.26522 14.8946 4.51957 14.7071 4.70711C14.5196 4.89464 14.2652 5 14 5C13.7348 5 13.4804 4.89464 13.2929 4.70711C13.1054 4.51957 13 4.26522 13 4C13 3.73478 13.1054 3.48043 13.2929 3.29289C13.4804 3.10536 13.7348 3 14 3C14.2652 3 14.5196 3.10536 14.7071 3.29289C14.8946 3.48043 15 3.73478 15 4ZM11 13C11 13.5304 10.7893 14.0391 10.4142 14.4142C10.0391 14.7893 9.53043 15 9 15C8.46957 15 7.96086 14.7893 7.58579 14.4142C7.21071 14.0391 7 13.5304 7 13C7 12.4696 7.21071 11.9609 7.58579 11.5858C7.96086 11.2107 8.46957 11 9 11C9.53043 11 10.0391 11.2107 10.4142 11.5858C10.7893 11.9609 11 12.4696 11 13ZM13 13C13 14.0609 12.5786 15.0783 11.8284 15.8284C11.0783 16.5786 10.0609 17 9 17C7.93913 17 6.92172 16.5786 6.17157 15.8284C5.42143 15.0783 5 14.0609 5 13C5 11.9391 5.42143 10.9217 6.17157 10.1716C6.92172 9.42143 7.93913 9 9 9C10.0609 9 11.0783 9.42143 11.8284 10.1716C12.5786 10.9217 13 11.9391 13 13Z" fill="#1B1B1B"/>
</svg>
