<svg width="18" height="20" viewBox="0 0 18 20" fill="none" xmlns="http://www.w3.org/2000/svg">
<path d="M6 20C5.45 20 4.97933 19.8043 4.588 19.413C4.196 19.021 4 18.55 4 18V14H2.4C1.75 14 1.18733 13.7623 0.712 13.287C0.237333 12.8123 0 12.25 0 11.6C0 11.1167 0.129333 10.6707 0.388 10.262C0.646 9.854 1 9.55 1.45 9.35L8 6.45V5.8C7.41667 5.6 6.93733 5.24567 6.562 4.737C6.18733 4.229 6 3.65 6 3C6 2.15 6.28767 1.43733 6.863 0.862C7.43767 0.287333 8.15 0 9 0C9.7 0 10.304 0.170667 10.812 0.512C11.3207 0.854 11.65 1.29167 11.8 1.825C11.8833 2.14167 11.8333 2.41667 11.65 2.65C11.4667 2.88333 11.1917 3 10.825 3C10.5917 3 10.3917 2.94567 10.225 2.837C10.0583 2.729 9.90833 2.58333 9.775 2.4C9.69167 2.26667 9.57933 2.16667 9.438 2.1C9.296 2.03333 9.15 2 9 2C8.71667 2 8.47933 2.09567 8.288 2.287C8.096 2.479 8 2.71667 8 3C8 3.28333 8.096 3.521 8.288 3.713C8.47933 3.90433 8.71667 4 9 4C9.28333 4 9.521 4.09567 9.713 4.287C9.90433 4.479 10 4.71667 10 5V6.45L16.55 9.35C17 9.55 17.3543 9.854 17.613 10.262C17.871 10.6707 18 11.1167 18 11.6C18 12.25 17.7627 12.8123 17.288 13.287C16.8127 13.7623 16.25 14 15.6 14H14V18C14 18.55 13.8043 19.021 13.413 19.413C13.021 19.8043 12.55 20 12 20H6ZM6 13H12H6ZM2.4 12H4.275C4.49167 11.6667 4.73767 11.4167 5.013 11.25C5.28767 11.0833 5.61667 11 6 11H12C12.3833 11 12.7127 11.0833 12.988 11.25C13.2627 11.4167 13.5083 11.6667 13.725 12H15.6C15.75 12 15.8543 11.95 15.913 11.85C15.971 11.75 16 11.65 16 11.55C16 11.4667 15.9793 11.3957 15.938 11.337C15.896 11.279 15.8333 11.2333 15.75 11.2L9 8.2L2.25 11.2C2.16667 11.2333 2.104 11.279 2.062 11.337C2.02067 11.3957 2 11.4667 2 11.55C2 11.6833 2.03333 11.7917 2.1 11.875C2.16667 11.9583 2.26667 12 2.4 12ZM6 18H12V13H6V18Z" fill="#1B1B1B"/>
</svg>
