<svg width="24" height="24" viewBox="0 0 24 24" fill="none" xmlns="http://www.w3.org/2000/svg">
<path fill-rule="evenodd" clip-rule="evenodd" d="M9.61326 0C9.43743 0 9.2688 0.0698497 9.14446 0.194183C9.02013 0.318517 8.95028 0.487149 8.95028 0.662983C8.95028 0.838818 9.02013 1.00745 9.14446 1.13178C9.2688 1.25612 9.43743 1.32597 9.61326 1.32597H11.337V3.00729C9.40687 3.14688 7.57348 3.90637 6.11006 5.1726L4.88221 3.94475L5.90519 2.92177C6.02596 2.79673 6.09279 2.62926 6.09128 2.45542C6.08977 2.28159 6.02004 2.11531 5.89712 1.99239C5.7742 1.86946 5.60791 1.79974 5.43408 1.79823C5.26025 1.79672 5.09277 1.86354 4.96773 1.98431L1.98431 4.96773C1.92099 5.02889 1.87048 5.10205 1.83573 5.18294C1.80099 5.26382 1.7827 5.35082 1.78193 5.43885C1.78117 5.52688 1.79794 5.61418 1.83128 5.69566C1.86461 5.77714 1.91384 5.85116 1.97609 5.91341C2.03834 5.97566 2.11236 6.02489 2.19384 6.05822C2.27532 6.09156 2.36262 6.10833 2.45065 6.10757C2.53868 6.1068 2.62568 6.08852 2.70657 6.05377C2.78745 6.01902 2.86061 5.96852 2.92177 5.90519L3.94475 4.88221L5.1726 6.11006C3.90637 7.57348 3.14688 9.40687 3.00729 11.337H1.32597V9.61326C1.32597 9.43743 1.25612 9.2688 1.13178 9.14446C1.00745 9.02013 0.838818 8.95028 0.662983 8.95028C0.487149 8.95028 0.318517 9.02013 0.194183 9.14446C0.0698497 9.2688 0 9.43743 0 9.61326V14.3867C0 14.5626 0.0698497 14.7312 0.194183 14.8555C0.318517 14.9799 0.487149 15.0497 0.662983 15.0497C0.838818 15.0497 1.00745 14.9799 1.13178 14.8555C1.25612 14.7312 1.32597 14.5626 1.32597 14.3867V12.663H3.00729C3.14688 14.5931 3.90637 16.4265 5.1726 17.8899L3.94475 19.1178L2.92177 18.0948C2.79673 17.974 2.62926 17.9072 2.45542 17.9087C2.28159 17.9102 2.11531 17.98 1.99239 18.1029C1.86946 18.2258 1.79974 18.3921 1.79823 18.5659C1.79672 18.7398 1.86354 18.9072 1.98431 19.0323L4.96773 22.0157C5.09277 22.1365 5.26025 22.2033 5.43408 22.2018C5.60791 22.2003 5.7742 22.1305 5.89712 22.0076C6.02004 21.8847 6.08977 21.7184 6.09128 21.5446C6.09279 21.3707 6.02596 21.2033 5.90519 21.0782L4.88221 20.0553L6.11006 18.8274C7.57348 20.0936 9.40687 20.8531 11.337 20.9927V22.674H9.61326C9.43743 22.674 9.2688 22.7439 9.14446 22.8682C9.02013 22.9926 8.95028 23.1612 8.95028 23.337C8.95028 23.5128 9.02013 23.6815 9.14446 23.8058C9.2688 23.9302 9.43743 24 9.61326 24H14.3867C14.5626 24 14.7312 23.9302 14.8555 23.8058C14.9799 23.6815 15.0497 23.5128 15.0497 23.337C15.0497 23.1612 14.9799 22.9926 14.8555 22.8682C14.7312 22.7439 14.5626 22.674 14.3867 22.674H12.663V20.9927C14.5931 20.8531 16.4265 20.0936 17.8899 18.8274L19.1178 20.0553L18.0948 21.0782C17.974 21.2033 17.9072 21.3707 17.9087 21.5446C17.9102 21.7184 17.98 21.8847 18.1029 22.0076C18.2258 22.1305 18.3921 22.2003 18.5659 22.2018C18.7398 22.2033 18.9072 22.1365 19.0323 22.0157L22.0157 19.0323C22.1365 18.9072 22.2033 18.7398 22.2018 18.5659C22.2003 18.3921 22.1305 18.2258 22.0076 18.1029C21.8847 17.98 21.7184 17.9102 21.5446 17.9087C21.3707 17.9072 21.2033 17.974 21.0782 18.0948L20.0553 19.1178L18.8274 17.8899C20.0936 16.4265 20.8531 14.5931 20.9927 12.663H22.674V14.3867C22.674 14.5626 22.7439 14.7312 22.8682 14.8555C22.9926 14.9799 23.1612 15.0497 23.337 15.0497C23.5128 15.0497 23.6815 14.9799 23.8058 14.8555C23.9302 14.7312 24 14.5626 24 14.3867V9.61326C24 9.43743 23.9302 9.2688 23.8058 9.14446C23.6815 9.02013 23.5128 8.95028 23.337 8.95028C23.1612 8.95028 22.9926 9.02013 22.8682 9.14446C22.7439 9.2688 22.674 9.43743 22.674 9.61326V11.337H20.9927C20.8531 9.40687 20.0936 7.57348 18.8274 6.11006L20.0553 4.88221L21.0782 5.90519C21.2033 6.02596 21.3707 6.09279 21.5446 6.09128C21.7184 6.08977 21.8847 6.02004 22.0076 5.89712C22.1305 5.7742 22.2003 5.60791 22.2018 5.43408C22.2033 5.26025 22.1365 5.09277 22.0157 4.96773L19.0323 1.98431C18.9711 1.92099 18.898 1.87048 18.8171 1.83573C18.7362 1.80099 18.6492 1.7827 18.5612 1.78193C18.4731 1.78117 18.3858 1.79794 18.3043 1.83128C18.2229 1.86461 18.1488 1.91384 18.0866 1.97609C18.0243 2.03834 17.9751 2.11236 17.9418 2.19384C17.9084 2.27532 17.8917 2.36262 17.8924 2.45065C17.8932 2.53868 17.9115 2.62568 17.9462 2.70657C17.981 2.78745 18.0315 2.86061 18.0948 2.92177L19.1178 3.94475L17.8899 5.1726C16.4265 3.90637 14.5931 3.14688 12.663 3.00729V1.32597H14.3867C14.5626 1.32597 14.7312 1.25612 14.8555 1.13178C14.9799 1.00745 15.0497 0.838818 15.0497 0.662983C15.0497 0.487149 14.9799 0.318517 14.8555 0.194183C14.7312 0.0698497 14.5626 0 14.3867 0H9.61326ZM12 4.30939C16.2471 4.30939 19.6906 7.75227 19.6906 12C19.6906 16.2471 16.2471 19.6906 12 19.6906C7.75227 19.6906 4.30939 16.2471 4.30939 12C4.30939 7.75227 7.75227 4.30939 12 4.30939ZM16.2431 11.7017C16.2431 11.6712 16.2491 11.641 16.2608 11.6129C16.2724 11.5847 16.2895 11.5591 16.3111 11.5376C16.3326 11.516 16.3582 11.4989 16.3863 11.4873C16.4145 11.4756 16.4447 11.4696 16.4751 11.4696C16.5056 11.4696 16.5358 11.4756 16.5639 11.4873C16.5921 11.4989 16.6177 11.516 16.6392 11.5376C16.6608 11.5591 16.6779 11.5847 16.6895 11.6129C16.7012 11.641 16.7072 11.6712 16.7072 11.7017C16.7072 11.7632 16.6827 11.8222 16.6392 11.8657C16.5957 11.9093 16.5367 11.9337 16.4751 11.9337C16.4136 11.9337 16.3546 11.9093 16.3111 11.8657C16.2675 11.8222 16.2431 11.7632 16.2431 11.7017ZM16.4751 10.1436C16.0619 10.1436 15.6656 10.3078 15.3735 10.6C15.0813 10.8922 14.9171 11.2884 14.9171 11.7017C14.9171 12.1149 15.0813 12.5112 15.3735 12.8033C15.6656 13.0955 16.0619 13.2597 16.4751 13.2597C16.8883 13.2597 17.2846 13.0955 17.5768 12.8033C17.869 12.5112 18.0331 12.1149 18.0331 11.7017C18.0331 11.2884 17.869 10.8922 17.5768 10.6C17.2846 10.3078 16.8883 10.1436 16.4751 10.1436ZM12.2983 16.2431C12.2679 16.2431 12.2377 16.2491 12.2095 16.2608C12.1814 16.2724 12.1558 16.2895 12.1343 16.3111C12.1127 16.3326 12.0956 16.3582 12.084 16.3863C12.0723 16.4145 12.0663 16.4447 12.0663 16.4751C12.0663 16.5056 12.0723 16.5358 12.084 16.5639C12.0956 16.5921 12.1127 16.6177 12.1343 16.6392C12.1558 16.6608 12.1814 16.6779 12.2095 16.6895C12.2377 16.7012 12.2679 16.7072 12.2983 16.7072C12.3599 16.7072 12.4189 16.6827 12.4624 16.6392C12.5059 16.5957 12.5304 16.5367 12.5304 16.4751C12.5304 16.4136 12.5059 16.3546 12.4624 16.3111C12.4189 16.2675 12.3599 16.2431 12.2983 16.2431ZM10.7403 16.4751C10.7403 16.0619 10.9045 15.6656 11.1967 15.3735C11.4888 15.0813 11.8851 14.9171 12.2983 14.9171C12.7116 14.9171 13.1078 15.0813 13.4 15.3735C13.6922 15.6656 13.8564 16.0619 13.8564 16.4751C13.8564 16.8883 13.6922 17.2846 13.4 17.5768C13.1078 17.869 12.7116 18.0331 12.2983 18.0331C11.8851 18.0331 11.4888 17.869 11.1967 17.5768C10.9045 17.2846 10.7403 16.8883 10.7403 16.4751ZM8.48619 9.61326C8.48619 9.31434 8.60493 9.02767 8.8163 8.8163C9.02767 8.60493 9.31434 8.48619 9.61326 8.48619C9.91218 8.48619 10.1989 8.60493 10.4102 8.8163C10.6216 9.02767 10.7403 9.31434 10.7403 9.61326C10.7403 9.91218 10.6216 10.1989 10.4102 10.4102C10.1989 10.6216 9.91218 10.7403 9.61326 10.7403C9.31434 10.7403 9.02767 10.6216 8.8163 10.4102C8.60493 10.1989 8.48619 9.91218 8.48619 9.61326ZM9.61326 7.16022C8.96267 7.16022 8.33873 7.41867 7.8787 7.8787C7.41867 8.33873 7.16022 8.96267 7.16022 9.61326C7.16022 10.2638 7.41867 10.8878 7.8787 11.3478C8.33873 11.8079 8.96267 12.0663 9.61326 12.0663C10.2638 12.0663 10.8878 11.8079 11.3478 11.3478C11.8079 10.8878 12.0663 10.2638 12.0663 9.61326C12.0663 8.96267 11.8079 8.33873 11.3478 7.8787C10.8878 7.41867 10.2638 7.16022 9.61326 7.16022Z" fill="#1B1B1B"/>
</svg>
