<svg width="26" height="10" viewBox="0 0 26 10" fill="none" xmlns="http://www.w3.org/2000/svg">
<path fill-rule="evenodd" clip-rule="evenodd" d="M2.36693 0.730331C3.15018 0.47892 4.38444 0.25 6.28846 0.25C8.19249 0.25 9.42675 0.47892 10.21 0.730331C10.6024 0.85629 10.8827 0.988263 11.0771 1.1006C11.1743 1.15674 11.2497 1.20779 11.3066 1.2504C11.335 1.27169 11.3587 1.29082 11.3782 1.30736C11.3879 1.31563 11.3966 1.32324 11.4042 1.33014L11.4149 1.33995L11.4197 1.34444L11.4219 1.34658L11.423 1.34762C11.423 1.34762 11.4241 1.34865 10.9038 1.88889L11.4241 1.34865C11.4554 1.37885 11.4839 1.4115 11.5092 1.44617C11.888 1.24559 12.3144 1.13889 12.75 1.13889C13.1856 1.13889 13.612 1.24559 13.9908 1.44617C14.0161 1.4115 14.0446 1.37885 14.0759 1.34865L14.5962 1.88889C14.0759 1.34865 14.077 1.34762 14.077 1.34762L14.0781 1.34658L14.0803 1.34444L14.0851 1.33995L14.0958 1.33014C14.1034 1.32324 14.1121 1.31563 14.1218 1.30736C14.1413 1.29082 14.165 1.27169 14.1934 1.2504C14.2503 1.20779 14.3257 1.15674 14.4229 1.1006C14.6173 0.988263 14.8976 0.85629 15.29 0.730331C16.0733 0.47892 17.3075 0.25 19.2115 0.25C21.1156 0.25 22.3498 0.47892 23.1331 0.730331C23.5255 0.85629 23.8058 0.988263 24.0002 1.1006C24.0228 1.11365 24.0442 1.12643 24.0645 1.13889H24.75C25.1642 1.13889 25.5 1.47468 25.5 1.88889C25.5 2.3031 25.1642 2.63889 24.75 2.63889H24.5705C24.5293 4.91858 24.2805 6.6532 23.5404 7.84106C22.6488 9.2721 21.1713 9.75 19.2115 9.75C17.2518 9.75 15.7743 9.2721 14.8827 7.84106C14.3487 6.98401 14.0704 5.84234 13.9414 4.41667H11.5586C11.4296 5.84234 11.1513 6.98401 10.6173 7.84106C9.72567 9.2721 8.2482 9.75 6.28846 9.75C4.32873 9.75 2.85125 9.2721 1.95961 7.84106C1.21948 6.6532 0.970669 4.91858 0.929506 2.63889H0.75C0.335786 2.63889 0 2.3031 0 1.88889C0 1.47468 0.335786 1.13889 0.75 1.13889H1.43551C1.45579 1.12643 1.4772 1.11365 1.49979 1.1006C1.69422 0.988263 1.97452 0.85629 2.36693 0.730331ZM2.42519 2.31049C2.45019 4.73623 2.69766 6.18912 3.2327 7.04783C3.72567 7.83901 4.55589 8.25 6.28846 8.25C8.02103 8.25 8.85125 7.83901 9.34422 7.04783C9.87926 6.18912 10.1267 4.73623 10.1517 2.31049C10.0524 2.26535 9.92089 2.21291 9.75155 2.15856C9.15018 1.96552 8.07674 1.75 6.28846 1.75C4.50018 1.75 3.42675 1.96552 2.82538 2.15856C2.65604 2.21291 2.52453 2.26535 2.42519 2.31049ZM12.0009 2.91667H13.4991C13.299 2.74089 13.0323 2.63889 12.75 2.63889C12.4677 2.63889 12.201 2.74089 12.0009 2.91667ZM15.3483 2.31049C15.3733 4.73623 15.6207 6.18912 16.1558 7.04783C16.6488 7.83901 17.479 8.25 19.2115 8.25C20.9441 8.25 21.7743 7.83901 22.2673 7.04783C22.8023 6.18912 23.0498 4.73623 23.0748 2.31049C22.9755 2.26535 22.844 2.21291 22.6746 2.15856C22.0733 1.96552 20.9998 1.75 19.2115 1.75C17.4233 1.75 16.3498 1.96552 15.7485 2.15856C15.5791 2.21291 15.4476 2.26535 15.3483 2.31049Z" fill="#1B1B1B"/>
</svg>
