<svg width="14" height="21" viewBox="0 0 14 21" fill="none" xmlns="http://www.w3.org/2000/svg">
<path d="M1.55556 0.75C1.55556 0.551088 1.47361 0.360322 1.32775 0.21967C1.18189 0.0790176 0.984057 0 0.777778 0C0.571498 0 0.373668 0.0790176 0.227806 0.21967C0.0819444 0.360322 8.10665e-08 0.551088 8.10665e-08 0.75V5.25C-0.000182895 6.11449 0.309387 6.95249 0.876317 7.62218C1.44325 8.29186 2.23272 8.7521 3.11111 8.925V20.25C3.11111 20.4489 3.19306 20.6397 3.33892 20.7803C3.48478 20.921 3.68261 21 3.88889 21C4.09517 21 4.293 20.921 4.43886 20.7803C4.58472 20.6397 4.66667 20.4489 4.66667 20.25V8.925C5.54506 8.7521 6.33453 8.29186 6.90146 7.62218C7.46839 6.95249 7.77796 6.11449 7.77778 5.25V0.75C7.77778 0.551088 7.69583 0.360322 7.54997 0.21967C7.40411 0.0790176 7.20628 0 7 0C6.79372 0 6.59589 0.0790176 6.45003 0.21967C6.30417 0.360322 6.22222 0.551088 6.22222 0.75V5.25C6.22248 5.71549 6.073 6.1696 5.7944 6.54974C5.5158 6.92988 5.12179 7.21734 4.66667 7.3725V0.75C4.66667 0.551088 4.58472 0.360322 4.43886 0.21967C4.293 0.0790176 4.09517 0 3.88889 0C3.68261 0 3.48478 0.0790176 3.33892 0.21967C3.19306 0.360322 3.11111 0.551088 3.11111 0.75V7.3725C2.65599 7.21734 2.26198 6.92988 1.98338 6.54974C1.70478 6.1696 1.5553 5.71549 1.55556 5.25V0.75ZM12.4444 20.25V10.5H10.1111C9.90483 10.5 9.707 10.421 9.56114 10.2803C9.41528 10.1397 9.33333 9.94891 9.33333 9.75V3.75C9.33333 2.7555 9.84044 1.8255 10.5327 1.1565C11.2264 0.489 12.1909 0 13.2222 0C13.4285 0 13.6263 0.0790176 13.7722 0.21967C13.9181 0.360322 14 0.551088 14 0.75V20.25C14 20.4489 13.9181 20.6397 13.7722 20.7803C13.6263 20.921 13.4285 21 13.2222 21C13.0159 21 12.8181 20.921 12.6722 20.7803C12.5264 20.6397 12.4444 20.4489 12.4444 20.25Z" fill="#1B1B1B"/>
</svg>
