<svg width="24" height="24" viewBox="0 0 24 24" fill="none" xmlns="http://www.w3.org/2000/svg">
<path d="M3.46869 1.15779C3.43119 1.17185 3.24838 1.28904 3.06556 1.41092C2.70463 1.65466 2.59681 1.81873 2.639 2.07654C2.66713 2.24529 8.98119 13.4953 9.14994 13.6734C9.36088 13.8984 9.5765 13.964 10.8843 14.1797C12.2578 14.4047 12.7687 14.5406 13.289 14.7984C13.7906 15.0515 14.0953 15.2672 14.5171 15.6703C15.1687 16.2937 15.3515 16.6922 15.3187 17.4328C15.3046 17.8219 15.2906 17.864 15.0328 18.3797C14.7374 18.9609 14.6249 19.3781 14.6249 19.875C14.6249 20.9859 15.2859 22.0547 16.2656 22.5422C16.9453 22.875 16.9828 22.875 20.0906 22.8656C21.9749 22.8562 22.8468 22.8375 22.8609 22.8C22.8703 22.7765 22.4624 22.5844 21.9515 22.3828C21.2718 22.1109 20.9812 21.9703 20.8453 21.8484C20.4937 21.5297 20.414 21.1687 20.5546 20.5078C20.6953 19.8422 20.6156 19.1859 20.3109 18.5672C20.1796 18.2953 20.0437 18.1172 19.739 17.8078C19.2562 17.325 18.7687 17.0578 18.164 16.9406C17.9578 16.9031 17.6624 16.8469 17.5078 16.8187C17.0437 16.7297 16.5234 16.439 16.1484 16.0547C15.5859 15.4875 15.3749 14.9578 15.3749 14.1281V13.6453L14.3343 12.5062C13.7671 11.8781 12.9609 10.9969 12.5484 10.5422L11.7937 9.71248L11.489 9.87185C11.1749 10.0359 10.6593 10.1719 10.3593 10.1719C10.0921 10.1719 9.55775 10.0406 9.29994 9.91404C8.76088 9.65154 8.69525 9.57185 5.92963 5.83123C4.47181 3.85779 3.28119 2.23123 3.28119 2.21248C3.28119 2.19373 3.47338 1.98748 3.70306 1.75779C3.93744 1.5281 4.12494 1.32185 4.12494 1.30779C4.12494 1.28904 4.05463 1.24216 3.96556 1.19998C3.80619 1.12498 3.59994 1.10623 3.46869 1.15779ZM12.2953 12.0656C12.7781 12.2672 12.8953 12.8953 12.5203 13.2703C12.2156 13.575 11.7843 13.575 11.4796 13.2703C10.8984 12.6937 11.5406 11.7469 12.2953 12.0656ZM18.3937 18.1781C18.8203 18.375 19.0921 18.6469 19.3031 19.0687C19.4671 19.4062 19.4765 19.4484 19.4765 19.875C19.4765 20.3015 19.4671 20.3437 19.3031 20.6812C19.0921 21.1078 18.8203 21.3703 18.3843 21.5765C18.0984 21.7125 18.0281 21.7265 17.6249 21.7265C17.2218 21.7265 17.1515 21.7125 16.8656 21.5765C16.4296 21.3703 16.1578 21.1078 15.9468 20.6812C15.7828 20.3437 15.7734 20.3015 15.7734 19.8797C15.7734 19.4719 15.7874 19.4015 15.9234 19.1156C16.1109 18.7172 16.3781 18.4265 16.7296 18.2437C17.0953 18.0469 17.3015 18 17.7281 18.0187C18.014 18.0328 18.1593 18.0703 18.3937 18.1781Z" fill="black"/>
<path d="M16.4062 5.60155C14.5125 7.93124 12.9656 9.85312 12.9656 9.86718C12.9796 9.91405 14.7281 11.8219 14.7421 11.8031C14.8218 11.7094 19.9218 3.76405 20.0015 3.60937C20.2265 3.16405 20.3062 2.57343 20.1984 2.10937C20.1468 1.87499 19.9265 1.35937 19.8796 1.35937C19.8656 1.36405 18.3 3.27187 16.4062 5.60155Z" fill="black"/>
<path d="M4.43423 2.10469L4.2561 2.2875L4.40142 2.50312C4.48579 2.62031 4.56548 2.71875 4.58423 2.71875C4.60298 2.71875 4.71548 2.625 4.82798 2.50781L5.03423 2.29687L4.85142 2.10938C4.75298 2.00625 4.65454 1.92187 4.64048 1.92187C4.62642 1.92187 4.53267 2.00625 4.43423 2.10469Z" fill="black"/>
<path d="M5.30142 3.1125L5.05298 3.36563L5.19829 3.58125C5.28267 3.69844 5.36235 3.79688 5.3811 3.79688C5.39985 3.79688 5.5311 3.67969 5.67173 3.53906L5.92485 3.28125L5.76548 3.10781C5.67642 3.00938 5.59204 2.91563 5.57798 2.89688C5.56392 2.87344 5.43735 2.97188 5.30142 3.1125Z" fill="black"/>
<path d="M6.14517 4.14375L5.84985 4.44375L5.99517 4.65937C6.07954 4.77656 6.15923 4.875 6.17798 4.875C6.19673 4.875 6.34673 4.73906 6.51079 4.575L6.81079 4.275L6.63267 4.05937C6.53423 3.94219 6.45454 3.84375 6.44985 3.84375C6.44517 3.84375 6.30923 3.97969 6.14517 4.14375Z" fill="black"/>
<path d="M6.98892 5.175L6.64673 5.52188L6.79204 5.7375C6.87642 5.85469 6.9561 5.95312 6.97485 5.95312C6.9936 5.95312 7.16704 5.79844 7.35454 5.60625L7.70142 5.25938L7.60298 5.12344C7.3686 4.79531 7.3686 4.79531 6.98892 5.175Z" fill="black"/>
<path d="M7.83267 6.20625L7.4436 6.6L7.58892 6.81562C7.67329 6.93281 7.75298 7.03125 7.77173 7.03125C7.79048 7.03125 7.98267 6.85312 8.19829 6.6375C8.62485 6.20625 8.62954 6.20156 8.35767 5.94375L8.22173 5.8125L7.83267 6.20625Z" fill="black"/>
<path d="M8.67642 7.2375L8.24048 7.67812L8.38579 7.89375C8.47017 8.01094 8.54985 8.10938 8.5686 8.10938C8.58735 8.10938 8.80767 7.90312 9.06079 7.65L9.51548 7.19062L9.31392 6.99375L9.11235 6.79688L8.67642 7.2375Z" fill="black"/>
<path d="M9.51558 8.27343L9.02808 8.76093L9.12183 8.86405C9.1687 8.91561 9.26714 8.99999 9.33276 9.05155L9.44995 9.13593L9.92808 8.6578L10.4062 8.17499L10.2046 7.97811L10.0031 7.78124L9.51558 8.27343Z" fill="black"/>
<path d="M10.5702 9.09375C10.2796 9.38437 10.2561 9.42188 10.3592 9.42188C10.6217 9.41719 11.2499 9.22031 11.2499 9.14531C11.2452 9.11719 10.9311 8.76562 10.9077 8.76562C10.903 8.76562 10.7483 8.91094 10.5702 9.09375Z" fill="black"/>
<path d="M8.53579 15.2766C8.22642 15.6562 7.87486 16.0547 7.76236 16.1625C7.33579 16.5562 6.84829 16.7766 6.21079 16.875C5.04829 17.0484 4.13423 17.6672 3.68423 18.5812C2.71392 20.5406 4.18111 22.875 6.37486 22.875C6.99829 22.875 7.57954 22.6828 8.15611 22.2891C8.56861 22.0031 8.89204 21.9328 9.25767 22.05C9.46861 22.1156 9.59986 22.2047 9.91392 22.5047C10.3733 22.9359 10.5045 22.9734 10.7389 22.7391C10.9967 22.4812 10.9358 22.3266 10.2889 21.5859C9.56704 20.7562 9.45454 20.5312 9.37486 19.7484C9.31392 19.1672 9.22954 18.8812 8.97642 18.3797C8.72798 17.8828 8.67173 17.6906 8.67173 17.2875C8.67173 16.9031 8.79361 16.4953 9.00454 16.1906C9.24829 15.8297 9.88579 15.2156 10.1858 15.0469C10.3358 14.9625 10.4483 14.8875 10.4389 14.8781C10.4342 14.8687 10.2233 14.8312 9.97486 14.7891C9.72642 14.7516 9.43579 14.6859 9.32798 14.6484C9.21548 14.6109 9.12173 14.5781 9.11704 14.5781C9.10767 14.5781 8.84986 14.8922 8.53579 15.2766ZM7.14361 18.1781C7.57017 18.375 7.84204 18.6469 8.05298 19.0687C8.21704 19.4062 8.22642 19.4484 8.22642 19.875C8.22642 20.3016 8.21704 20.3437 8.05298 20.6812C7.84204 21.1078 7.57017 21.3703 7.13423 21.5766C6.84829 21.7125 6.77798 21.7266 6.37486 21.7266C5.97173 21.7266 5.90142 21.7125 5.61548 21.5766C5.17954 21.3703 4.90767 21.1078 4.69673 20.6812C4.53267 20.3437 4.52329 20.3016 4.52329 19.8797C4.52329 19.4719 4.53736 19.4016 4.67329 19.1156C4.86079 18.7172 5.12798 18.4266 5.47954 18.2437C5.84517 18.0469 6.05142 18 6.47798 18.0187C6.76392 18.0328 6.90923 18.0703 7.14361 18.1781Z" fill="black"/>
</svg>
