<svg width="20" height="20" viewBox="0 0 20 20" fill="none" xmlns="http://www.w3.org/2000/svg">
<path d="M6.50022 6C6.6183 6 6.73153 6.0476 6.81502 6.13234C6.89851 6.21707 6.94542 6.332 6.94542 6.45183V8.04817H8.5548C8.67288 8.04817 8.78611 8.09577 8.8696 8.1805C8.95309 8.26524 9 8.38017 9 8.5C9 8.61983 8.95309 8.73476 8.8696 8.81949C8.78611 8.90423 8.67288 8.95183 8.5548 8.95183H6.94542V10.5482C6.94542 10.668 6.89851 10.7829 6.81502 10.8677C6.73153 10.9524 6.6183 11 6.50022 11C6.38215 11 6.26891 10.9524 6.18542 10.8677C6.10193 10.7829 6.05503 10.668 6.05503 10.5482V8.95183H4.4452C4.32712 8.95183 4.21389 8.90423 4.1304 8.81949C4.0469 8.73476 4 8.61983 4 8.5C4 8.38017 4.0469 8.26524 4.1304 8.1805C4.21389 8.09577 4.32712 8.04817 4.4452 8.04817H6.05503V6.45183C6.05503 6.332 6.10193 6.21707 6.18542 6.13234C6.26891 6.0476 6.38215 6 6.50022 6Z" fill="#1B1B1B" stroke="#1B1B1B" stroke-width="0.5"/>
<path fill-rule="evenodd" clip-rule="evenodd" d="M3.00024 16.27L1.01924 2.8805C0.982834 2.64683 0.998225 2.40802 1.06432 2.18095C1.13042 1.95389 1.24561 1.74412 1.40174 1.5665C1.55781 1.38789 1.75051 1.24499 1.96674 1.1475C2.18285 1.05014 2.4172 0.999864 2.65424 1H10.3472C10.5842 1.00005 10.8184 1.0506 11.0343 1.14828C11.2502 1.24597 11.4428 1.38854 11.5992 1.5665C11.7554 1.74412 11.8706 1.95389 11.9366 2.18095C12.0027 2.40802 12.0181 2.64683 11.9817 2.8805L10.0002 16.2705V17.25C10.0002 17.7075 9.82574 18.1505 9.50924 18.48C9.35323 18.6438 9.16569 18.7743 8.95791 18.8636C8.75013 18.953 8.52642 18.9994 8.30024 19H4.70024C4.24274 19 3.80824 18.81 3.49124 18.48C3.17519 18.1486 2.9993 17.708 3.00024 17.25V16.27ZM2.37824 2.059C2.46424 2.0205 2.55824 2 2.65424 2H10.3467C10.4411 1.99969 10.5345 2.01956 10.6205 2.05828C10.7066 2.097 10.7834 2.15367 10.8457 2.2245C10.9059 2.29244 10.9504 2.37287 10.9758 2.46001C11.0012 2.54716 11.007 2.63885 10.9927 2.7285L9.10324 15.5H3.89724L2.00824 2.7325L2.00774 2.7285C1.99345 2.63873 1.99926 2.54691 2.02477 2.45967C2.05028 2.37242 2.09484 2.29193 2.15524 2.224C2.21574 2.1545 2.29174 2.098 2.37824 2.059ZM8.78824 17.7875C8.92174 17.6485 9.00024 17.4555 9.00024 17.25V16.7335H4.00024V17.25C4.00024 17.455 4.07874 17.6485 4.21224 17.7875C4.34524 17.926 4.52124 18 4.70024 18H8.30024C8.47924 18 8.65524 17.926 8.78824 17.7875Z" fill="#1B1B1B" stroke="#1B1B1B" stroke-width="0.5"/>
<path d="M19 1.5C19 1.36739 18.9473 1.24021 18.8536 1.14645C18.7598 1.05268 18.6326 1 18.5 1C18.3674 1 18.2402 1.05268 18.1464 1.14645C18.0527 1.24021 18 1.36739 18 1.5H15V2.5H18V3.5H15V4.5H18V5.5H15V6.5H18V7.496L16.1215 9.6735C16.0432 9.76425 16 9.88012 16 10V18.5C16 18.6326 16.0527 18.7598 16.1464 18.8536C16.2402 18.9473 16.3674 19 16.5 19C16.6326 19 16.7598 18.9473 16.8536 18.8536C16.9473 18.7598 17 18.6326 17 18.5V10.186L18.8785 8.0085C18.9568 7.91775 19 7.80188 19 7.682V1.5Z" fill="#1B1B1B" stroke="#1B1B1B" stroke-width="0.5"/>
</svg>
