<svg width="19" height="19" viewBox="0 0 19 19" fill="none" xmlns="http://www.w3.org/2000/svg">
<path d="M13.1853 0L12.7048 0.52605C11.6287 1.70911 10.7416 2.23809 10.0032 2.58416C9.26486 2.92949 8.64442 3.03265 8.03497 3.49871C7.38523 3.99623 6.44101 4.95029 6.04326 6.65355C5.19061 6.83939 4.5665 7.1657 4.07425 7.59078C3.58786 8.01074 3.22161 8.48851 2.77038 9.0087C2.76671 9.01456 2.77257 9.02553 2.77038 9.03138C2.12283 9.77473 1.5566 10.5751 0.457823 10.998L0 11.1809V19H13.964C14.7646 18.9568 15.3198 18.403 15.6575 17.8564C15.9945 17.3106 16.1813 16.7195 16.2758 16.2337C16.519 14.9957 16.9621 11.4319 16.9621 11.4319L16.9856 11.3639V11.2951C16.9621 10.8005 16.7585 10.3805 16.5043 9.9913L17.3284 7.54542L18.6337 5.57877L19 5.05272L18.5187 4.61885L13.712 0.457276L13.1853 0ZM13.2314 2.01201L17.0537 5.32781L16.0465 6.81305L15.9784 6.88255L15.9549 6.99669L15.2913 8.96261C14.9448 8.81994 14.5881 8.7197 14.1925 8.73434H14.1463L9.52271 8.75702H8.79019V11.5921C8.68764 12.3896 8.24374 12.6984 7.69142 12.9186C7.50829 12.9925 7.48558 12.9523 7.32516 12.9866V8.73507C7.20503 6.02287 8.17195 5.24221 8.92791 4.66495C9.13667 4.50472 9.74832 4.31961 10.6215 3.91062C11.3511 3.56748 12.2579 2.95291 13.2314 2.01275V2.01201ZM5.90628 8.29974C5.90335 8.46583 5.85134 8.58289 5.86013 8.75702V14.6102H6.59264C6.59264 14.6102 7.37644 14.6014 8.2181 14.267C9.05902 13.9327 10.075 13.1498 10.2552 11.775V10.2203L14.1925 10.1976H14.2152C14.5368 10.18 14.8522 10.2904 15.0925 10.5046C15.3327 10.7188 15.4782 11.0193 15.4971 11.3404C15.4942 11.3522 15.4605 11.6236 15.4517 11.6836H12.4528V13.1469H15.2686C15.1909 13.7124 15.1199 14.0673 15.0393 14.6102H12.4528V16.0734H14.8107C14.7242 16.4274 14.5852 16.7665 14.3983 17.0794C14.1984 17.405 14.0262 17.5279 13.8724 17.5367H1.46503V12.0721C2.65244 11.4429 3.39082 10.5378 3.86842 9.99203C4.3636 9.42574 4.70349 8.997 5.03605 8.71166C5.2536 8.52582 5.59422 8.41973 5.90628 8.29974Z" fill="#1B1B1B"/>
</svg>
