<svg width="34" height="34" viewBox="0 0 34 34" fill="none" xmlns="http://www.w3.org/2000/svg">
<path d="M18.9956 16.9988L25.0814 10.9263C25.3479 10.6598 25.4976 10.2982 25.4976 9.92129C25.4976 9.54434 25.3479 9.18283 25.0814 8.91629C24.8148 8.64974 24.4534 8.5 24.0765 8.5C23.6996 8.5 23.3381 8.64974 23.0716 8.91629L17 15.0029L10.9284 8.91629C10.6619 8.64974 10.3004 8.5 9.92351 8.5C9.54661 8.5 9.18515 8.64974 8.91864 8.91629C8.65214 9.18283 8.50242 9.54434 8.50242 9.92129C8.50242 10.2982 8.65214 10.6598 8.91864 10.9263L15.0044 16.9988L8.91864 23.0713C8.78599 23.2029 8.6807 23.3594 8.60885 23.5319C8.53699 23.7044 8.5 23.8894 8.5 24.0763C8.5 24.2632 8.53699 24.4482 8.60885 24.6207C8.6807 24.7932 8.78599 24.9497 8.91864 25.0813C9.05021 25.214 9.20675 25.3193 9.37921 25.3911C9.55168 25.463 9.73667 25.5 9.92351 25.5C10.1103 25.5 10.2953 25.463 10.4678 25.3911C10.6403 25.3193 10.7968 25.214 10.9284 25.0813L17 18.9946L23.0716 25.0813C23.2032 25.214 23.3597 25.3193 23.5322 25.3911C23.7047 25.463 23.8897 25.5 24.0765 25.5C24.2633 25.5 24.4483 25.463 24.6208 25.3911C24.7933 25.3193 24.9498 25.214 25.0814 25.0813C25.214 24.9497 25.3193 24.7932 25.3912 24.6207C25.463 24.4482 25.5 24.2632 25.5 24.0763C25.5 23.8894 25.463 23.7044 25.3912 23.5319C25.3193 23.3594 25.214 23.2029 25.0814 23.0713L18.9956 16.9988Z" fill="#1B1B1B"/>
</svg>
