<svg width="14" height="27" viewBox="0 0 14 27" fill="none" xmlns="http://www.w3.org/2000/svg">
<path d="M11.3706 26.3333C11.0967 26.3342 10.826 26.2738 10.5785 26.1564C10.331 26.039 10.1129 25.8677 9.94036 25.655L1.08376 14.6561C0.814064 14.328 0.666626 13.9166 0.666626 13.492C0.666626 13.0674 0.814064 12.656 1.08376 12.3279L10.2521 1.32898C10.5633 0.95462 11.0106 0.719197 11.4954 0.674505C11.9803 0.629813 12.4631 0.779512 12.8375 1.09067C13.212 1.40183 13.4475 1.84896 13.4922 2.33369C13.5369 2.81843 13.3872 3.30106 13.0759 3.67543L4.87945 13.5012L12.8009 23.3269C13.0251 23.596 13.1675 23.9236 13.2113 24.2711C13.2551 24.6186 13.1984 24.9713 13.048 25.2876C12.8975 25.6039 12.6596 25.8704 12.3623 26.0558C12.065 26.2411 11.7209 26.3374 11.3706 26.3333Z" fill="#1B1B1B"/>
</svg>