<svg width="7" height="15" viewBox="0 0 7 15" fill="none" xmlns="http://www.w3.org/2000/svg">
<path d="M5.83854 14.4999C5.68912 14.5004 5.54148 14.4675 5.40648 14.4034C5.27147 14.3394 5.15253 14.246 5.0584 14.13L0.227529 8.13053C0.0804207 7.95162 0 7.72719 0 7.49559C0 7.26399 0.0804207 7.03957 0.227529 6.86065L5.22843 0.861218C5.3982 0.657021 5.64215 0.528609 5.90663 0.504231C6.1711 0.479854 6.43443 0.561508 6.63868 0.73123C6.84294 0.900953 6.97138 1.14484 6.99577 1.40924C7.02015 1.67364 6.93848 1.9369 6.76871 2.1411L2.2979 7.50059L6.61868 12.8601C6.74098 13.0069 6.81868 13.1856 6.84256 13.3751C6.86644 13.5646 6.83552 13.757 6.75345 13.9296C6.67138 14.1021 6.5416 14.2475 6.37946 14.3485C6.21732 14.4496 6.02961 14.5022 5.83854 14.4999Z" fill="#1B1B1B"/>
</svg>
