<svg width="19" height="19" viewBox="0 0 19 19" fill="none" xmlns="http://www.w3.org/2000/svg">
<path d="M17.271 3.94488C17.2214 3.79242 17.1249 3.65955 16.9952 3.56527C16.8655 3.471 16.7093 3.42015 16.549 3.42H14.82V0.76C14.82 0.339625 14.4804 0 14.06 0H4.94C4.51962 0 4.18 0.339625 4.18 0.76V3.42H2.451C2.29059 3.41979 2.13424 3.47049 2.00449 3.56482C1.87474 3.65914 1.77828 3.79222 1.729 3.94488L0 9.2625V18.24C0 18.6604 0.339625 19 0.76 19H18.24C18.6604 19 19 18.6604 19 18.24V9.2625L17.271 3.94488ZM5.89 1.71H13.11V3.42H5.89V1.71ZM17.29 17.29H1.71V9.53325L3.14213 5.13H15.8579L17.29 9.53325V17.29ZM12.825 10.925H10.26V8.36C10.26 8.2555 10.1745 8.17 10.07 8.17H8.93C8.8255 8.17 8.74 8.2555 8.74 8.36V10.925H6.175C6.0705 10.925 5.985 11.0105 5.985 11.115V12.255C5.985 12.3595 6.0705 12.445 6.175 12.445H8.74V15.01C8.74 15.1145 8.8255 15.2 8.93 15.2H10.07C10.1745 15.2 10.26 15.1145 10.26 15.01V12.445H12.825C12.9295 12.445 13.015 12.3595 13.015 12.255V11.115C13.015 11.0105 12.9295 10.925 12.825 10.925Z" fill="#1B1B1B"/>
</svg>
