<svg width="19" height="19" viewBox="0 0 19 19" fill="none" xmlns="http://www.w3.org/2000/svg">
<path d="M11.2219 1.55313C11.2468 1.45779 11.2905 1.36839 11.3505 1.29016C11.4104 1.21194 11.4854 1.14646 11.5709 1.09757C11.6565 1.04867 11.751 1.01735 11.8488 1.00542C11.9466 0.993501 12.0458 1.00122 12.1406 1.02813C13.5387 1.40311 14.8136 2.13934 15.8371 3.16289C16.8607 4.18644 17.5969 5.46128 17.9719 6.85938C17.9988 6.95419 18.0065 7.05341 17.9946 7.15123C17.9827 7.24905 17.9513 7.34352 17.9024 7.42908C17.8535 7.51465 17.7881 7.58959 17.7098 7.64953C17.6316 7.70946 17.5422 7.75319 17.4469 7.77813C17.3829 7.79667 17.3166 7.80613 17.25 7.80626C17.0845 7.80531 16.9239 7.74962 16.7933 7.64787C16.6627 7.54612 16.5695 7.40404 16.5281 7.24376C16.2162 6.10215 15.6121 5.06159 14.7752 4.22477C13.9384 3.38794 12.8979 2.78377 11.7562 2.47188C11.6601 2.44796 11.5697 2.40498 11.4904 2.34549C11.4111 2.28599 11.3446 2.21119 11.2948 2.12551C11.2449 2.03984 11.2128 1.94503 11.2003 1.84671C11.1878 1.7484 11.1951 1.64856 11.2219 1.55313ZM10.9781 5.36876C11.6127 5.54246 12.1911 5.87848 12.6563 6.3437C13.1215 6.80892 13.4575 7.3873 13.6312 8.02188C13.6712 8.18296 13.764 8.32597 13.8949 8.42797C14.0258 8.52997 14.1872 8.58505 14.3531 8.58438C14.4167 8.585 14.48 8.57551 14.5406 8.55626C14.6368 8.53234 14.7272 8.48936 14.8065 8.42986C14.8857 8.37037 14.9523 8.29556 15.0021 8.20989C15.0519 8.12421 15.0841 8.02941 15.0966 7.93109C15.1091 7.83277 15.1018 7.73294 15.075 7.63751C14.8382 6.74642 14.3702 5.93374 13.7182 5.28179C13.0663 4.62983 12.2536 4.16177 11.3625 3.92501C11.2647 3.88937 11.1605 3.87449 11.0566 3.88131C10.9527 3.88814 10.8514 3.91653 10.759 3.96467C10.6667 4.01281 10.5854 4.07964 10.5203 4.16092C10.4553 4.24219 10.4078 4.33613 10.381 4.43675C10.3542 4.53736 10.3487 4.64246 10.3647 4.74533C10.3808 4.84821 10.4181 4.94662 10.4743 5.03429C10.5304 5.12196 10.6042 5.19698 10.691 5.25456C10.7777 5.31214 10.8755 5.35104 10.9781 5.36876ZM18.7125 14.4156C18.5467 15.6816 17.9267 16.8443 16.9679 17.6876C16.0092 18.5308 14.7768 18.9972 13.5 19C6.05625 19 0 12.9438 0 5.50001C0.00281471 4.22319 0.469194 2.99083 1.31243 2.03206C2.15566 1.07329 3.31837 0.453355 4.58437 0.287507C4.90711 0.251724 5.23284 0.319672 5.51435 0.481498C5.79586 0.643324 6.01851 0.890614 6.15 1.18751L8.03437 5.58438C8.13212 5.81261 8.17131 6.06163 8.14839 6.30885C8.12547 6.55607 8.04116 6.79364 7.90312 7.00001L6.34687 9.38126C7.05158 10.8114 8.21273 11.966 9.64687 12.6625L12 11.0969C12.2061 10.9579 12.4443 10.8738 12.692 10.8525C12.9397 10.8312 13.1888 10.8733 13.4156 10.975L17.8125 12.85C18.1094 12.9815 18.3567 13.2041 18.5185 13.4857C18.6803 13.7672 18.7483 14.0929 18.7125 14.4156ZM17.2219 14.2281L12.825 12.3531L10.4812 13.9188C10.2656 14.0613 10.0168 14.1457 9.75887 14.1638C9.50098 14.1819 9.2428 14.133 9.00937 14.0219C7.26276 13.177 5.84994 11.7708 4.99687 10.0281C4.8844 9.7955 4.83393 9.53775 4.85036 9.27988C4.86678 9.022 4.94955 8.77274 5.09062 8.55626L6.65625 6.17501L4.77187 1.77813C3.86714 1.89443 3.03582 2.33652 2.43356 3.02161C1.8313 3.70671 1.4994 4.58783 1.5 5.50001C1.50248 8.68184 2.76756 11.7326 5.01746 13.9825C7.26736 16.2324 10.3182 17.4975 13.5 17.5C14.4122 17.5006 15.2933 17.1687 15.9784 16.5665C16.6635 15.9642 17.1056 15.1329 17.2219 14.2281Z" fill="#1B1B1B"/>
</svg>
