<svg width="24" height="24" viewBox="0 0 24 24" fill="none" xmlns="http://www.w3.org/2000/svg">
<path d="M16.7812 0.0703182C15.703 0.220318 14.7187 0.637506 13.828 1.31719C13.4015 1.64532 1.55146 13.5047 1.25615 13.8984C0.613965 14.7609 0.215527 15.7547 0.0702149 16.8281C-0.398535 20.2875 2.0249 23.4656 5.48428 23.9297C6.64209 24.0891 7.81396 23.925 8.88271 23.4563C9.72646 23.0813 10.2562 22.6828 11.3202 21.6141C11.7562 21.1734 12.1312 20.8125 12.1452 20.8125C12.164 20.8125 12.2905 20.9859 12.4265 21.2016C12.9562 22.0125 14.0249 22.9359 14.9296 23.3672C15.8483 23.8031 16.6218 23.9766 17.6483 23.9719C18.6983 23.9719 19.3687 23.8313 20.2733 23.4234C21.6233 22.8234 22.8233 21.6234 23.4233 20.2734C23.8312 19.3688 23.9718 18.6984 23.9718 17.6484C23.9765 16.6266 23.8077 15.8578 23.3812 14.9672C22.9358 14.025 22.0218 12.9656 21.2015 12.4266C20.9858 12.2906 20.8124 12.1641 20.8124 12.1453C20.8124 12.1313 21.1733 11.7563 21.614 11.3203C22.6827 10.2563 23.0812 9.72657 23.4562 8.88282C24.3843 6.76407 24.089 4.32188 22.6827 2.48438C21.2999 0.675007 19.0499 -0.243744 16.7812 0.0703182ZM18.8483 1.56094C19.7577 1.79532 20.4983 2.21719 21.1405 2.85938C21.778 3.49688 22.1952 4.22813 22.4437 5.15157C22.5468 5.54532 22.5608 5.69532 22.5608 6.32813C22.5608 6.96094 22.5468 7.11094 22.4437 7.50469C22.1343 8.65313 21.8296 9.10782 20.4374 10.5141L19.378 11.5875L19.1015 11.5125C17.9296 11.2125 16.5374 11.325 15.2952 11.8172C14.8499 11.9906 14.5312 12.1688 14.0437 12.5063L13.6733 12.7594L11.3249 10.4109L8.97646 8.0625L11.6483 5.38594C13.2655 3.76875 14.4796 2.59219 14.7187 2.40938C15.3515 1.93126 16.0358 1.63594 16.8843 1.47188C17.3952 1.37813 18.2858 1.41563 18.8483 1.56094ZM10.3358 11.4375C12.1546 13.2563 12.6702 13.7953 12.6327 13.8469C11.9624 14.7891 11.6155 15.6 11.4421 16.6406C11.2968 17.4844 11.3249 18.3563 11.5124 19.1016L11.5874 19.3781L10.514 20.4375C9.10771 21.8297 8.65303 22.1344 7.50459 22.4438C7.11084 22.5469 6.96084 22.5609 6.32803 22.5609C5.69521 22.5609 5.54521 22.5469 5.15146 22.4438C4.22803 22.1953 3.49678 21.7781 2.85928 21.1406C2.22178 20.5031 1.80459 19.7719 1.55615 18.8484C1.45303 18.4547 1.43896 18.3047 1.43896 17.6719C1.43896 17.0391 1.45303 16.8891 1.55615 16.4953C1.72021 15.8906 1.92178 15.4359 2.23584 14.9578C2.45146 14.625 2.99053 14.0625 5.22178 11.8219C6.71709 10.3219 7.95459 9.09375 7.96865 9.09375C7.98271 9.09375 9.04678 10.1484 10.3358 11.4375ZM16.9687 17.6719V22.5422L16.8187 22.5141C15.2718 22.2234 13.9546 21.2297 13.2655 19.8375C12.328 17.9344 12.7077 15.6844 14.2218 14.1797C14.8358 13.5703 15.6796 13.0922 16.4577 12.9141C16.6499 12.8719 16.828 12.8297 16.8515 12.8203C16.8796 12.8109 16.9124 12.8016 16.9358 12.8016C16.9546 12.7969 16.9687 14.9906 16.9687 17.6719ZM18.703 12.8672C19.7483 13.0594 20.8968 13.7906 21.5765 14.7C22.7202 16.2188 22.9077 18.1547 22.078 19.8375C21.389 21.2297 20.0718 22.2234 18.5296 22.5141L18.3749 22.5422V17.6672C18.3749 13.0453 18.3796 12.7922 18.4593 12.8156C18.5015 12.825 18.614 12.8484 18.703 12.8672Z" fill="black"/>
</svg>
