<svg width="7" height="15" viewBox="0 0 7 15" fill="none" xmlns="http://www.w3.org/2000/svg">
<path d="M0.993352 14.4982C0.761661 14.4987 0.537126 14.4175 0.358724 14.2687C0.258315 14.1849 0.175316 14.0821 0.114479 13.966C0.0536416 13.8499 0.0161625 13.7229 0.00418798 13.5922C-0.00778654 13.4615 0.00597898 13.3297 0.0446958 13.2044C0.0834126 13.0791 0.146319 12.9626 0.229814 12.8618L4.67221 7.51368L0.388472 2.15557C0.306104 2.0535 0.244592 1.93607 0.207475 1.81001C0.170357 1.68395 0.158365 1.55175 0.172187 1.42101C0.186009 1.29027 0.225373 1.16357 0.288017 1.04819C0.35066 0.932812 0.435349 0.831026 0.537213 0.748686C0.639811 0.657851 0.75996 0.589335 0.89012 0.547439C1.02028 0.505543 1.15764 0.491171 1.29359 0.505225C1.42953 0.519279 1.56112 0.561455 1.68009 0.629107C1.79907 0.696758 1.90286 0.788425 1.98496 0.898354L6.77442 6.88508C6.92027 7.06361 7 7.28756 7 7.51867C7 7.74979 6.92027 7.97373 6.77442 8.15227L1.81639 14.139C1.71691 14.2597 1.59055 14.3552 1.44755 14.4176C1.30455 14.48 1.14894 14.5076 0.993352 14.4982Z" fill="#1B1B1B"/>
</svg>
