<svg width="14" height="27" viewBox="0 0 14 27" fill="none" xmlns="http://www.w3.org/2000/svg">
<path d="M2.32115 26.3301C1.89638 26.3309 1.48473 26.1821 1.15766 25.9094C0.973577 25.7558 0.821412 25.5672 0.709878 25.3544C0.598343 25.1415 0.529631 24.9087 0.507678 24.6691C0.485725 24.4295 0.510961 24.1879 0.581942 23.9581C0.652923 23.7284 0.768252 23.5149 0.921327 23.3301L9.06573 13.5252L1.2122 3.70195C1.06119 3.51484 0.94842 3.29954 0.880371 3.06843C0.812322 2.83732 0.790336 2.59496 0.815677 2.35527C0.841017 2.11558 0.913184 1.8833 1.02803 1.67177C1.14288 1.46024 1.29814 1.27363 1.48489 1.12267C1.67299 0.956141 1.89326 0.830529 2.13189 0.75372C2.37051 0.67691 2.62235 0.650562 2.87157 0.676327C3.1208 0.702092 3.36205 0.779415 3.58017 0.903443C3.79829 1.02747 3.98858 1.19553 4.13909 1.39706L12.9198 12.3727C13.1872 12.7 13.3333 13.1106 13.3333 13.5343C13.3333 13.958 13.1872 14.3686 12.9198 14.6959L3.83004 25.6716C3.64767 25.8929 3.416 26.0679 3.15384 26.1824C2.89167 26.2968 2.60639 26.3474 2.32115 26.3301Z" fill="#1B1B1B"/>
</svg>
