<svg width="20" height="20" viewBox="0 0 20 20" fill="none" xmlns="http://www.w3.org/2000/svg">
<path d="M19 12V13C19 14.91 17.93 16.57 16.35 17.41L17 20H15L14.5 18H5.5L5 20H3L3.65 17.41C2.84919 16.9852 2.17931 16.3501 1.71239 15.5731C1.24548 14.7961 0.999186 13.9065 1 13V12H0V10H18V3C18 2.73478 17.8946 2.48043 17.7071 2.29289C17.5196 2.10536 17.2652 2 17 2C16.5 2 16.12 2.34 16 2.79C16.63 3.33 17 4.13 17 5H11C11 4.20435 11.3161 3.44129 11.8787 2.87868C12.4413 2.31607 13.2044 2 14 2H14.17C14.58 0.84 15.69 0 17 0C17.7956 0 18.5587 0.316071 19.1213 0.87868C19.6839 1.44129 20 2.20435 20 3V12H19ZM17 12H3V13C3 13.7956 3.31607 14.5587 3.87868 15.1213C4.44129 15.6839 5.20435 16 6 16H14C14.7956 16 15.5587 15.6839 16.1213 15.1213C16.6839 14.5587 17 13.7956 17 13V12Z" fill="#1B1B1B"/>
</svg>
