<svg width="24" height="24" viewBox="0 0 24 24" fill="none" xmlns="http://www.w3.org/2000/svg">
<path d="M6.5 11.4286C6.71191 11.4286 6.91906 11.4914 7.09525 11.6091C7.27145 11.7269 7.40878 11.8942 7.48987 12.09C7.57097 12.2858 7.59218 12.5012 7.55084 12.709C7.5095 12.9169 7.40746 13.1078 7.25761 13.2576C7.10777 13.4075 6.91686 13.5095 6.70903 13.5508C6.50119 13.5922 6.28576 13.571 6.08998 13.4899C5.8942 13.4088 5.72687 13.2714 5.60914 13.0953C5.49141 12.9191 5.42857 12.7119 5.42857 12.5C5.42857 12.2158 5.54145 11.9433 5.74239 11.7424C5.94332 11.5415 6.21584 11.4286 6.5 11.4286ZM6.5 10C6.00555 10 5.5222 10.1466 5.11108 10.4213C4.69995 10.696 4.37952 11.0865 4.1903 11.5433C4.00108 12.0001 3.95157 12.5028 4.04804 12.9877C4.1445 13.4727 4.3826 13.9181 4.73223 14.2678C5.08187 14.6174 5.52732 14.8555 6.01227 14.952C6.49723 15.0484 6.99989 14.9989 7.45671 14.8097C7.91352 14.6205 8.30397 14.3 8.57867 13.8889C8.85338 13.4778 9 12.9945 9 12.5C9 11.837 8.73661 11.2011 8.26777 10.7322C7.79893 10.2634 7.16304 10 6.5 10Z" fill="#1B1B1B"/>
<path d="M19.25 10.9989H13.25C12.8522 10.9989 12.4707 11.157 12.1894 11.4383C11.9081 11.7196 11.75 12.1012 11.75 12.499V16.9995H3.50005V8.44866L12.5 3.6032L21.8976 8.65868L22.6025 7.33856L12.8525 2.08806C12.744 2.03027 12.623 2.00005 12.5 2.00005C12.3771 2.00005 12.2561 2.03027 12.1475 2.08806L2.39755 7.33856C2.27779 7.40233 2.17757 7.4974 2.10757 7.61364C2.03757 7.72988 2.00041 7.86293 2.00005 7.99862V23H3.50005V18.4996H21.5V23H23V14.7493C23 13.7546 22.605 12.8007 21.9017 12.0974C21.1984 11.394 20.2446 10.9989 19.25 10.9989ZM13.25 16.9995V12.499H19.25C19.8468 12.499 20.4191 12.7361 20.841 13.1581C21.263 13.5801 21.5 14.1525 21.5 14.7493V16.9995H13.25Z" fill="#1B1B1B"/>
<path fill-rule="evenodd" clip-rule="evenodd" d="M12.5 3.6032L3.50005 8.44866V16.9995H11.75V12.499C11.75 12.1012 11.9081 11.7196 12.1894 11.4383C12.4707 11.157 12.8522 10.9989 13.25 10.9989H19.25C20.2446 10.9989 21.1984 11.394 21.9017 12.0974C22.605 12.8007 23 13.7546 23 14.7493V23H21.5V18.4996H3.50005V23H2.00005V7.99862C2.00041 7.86293 2.03757 7.72988 2.10757 7.61364C2.17757 7.4974 2.27779 7.40233 2.39755 7.33856L12.1475 2.08806C12.2561 2.03027 12.3771 2.00005 12.5 2.00005C12.623 2.00005 12.744 2.03027 12.8525 2.08806L22.6025 7.33856L21.8976 8.65868L12.5 3.6032ZM2.30354 7.16203C2.30368 7.16195 2.30341 7.1621 2.30354 7.16203L12.0527 1.91197C12.1902 1.83877 12.3443 1.80005 12.5 1.80005C12.6558 1.80005 12.8091 1.83833 12.9466 1.91153L22.8729 7.25696L21.9795 8.92985L12.5001 3.83033L3.70005 8.56813V16.7995H11.55V12.499C11.55 12.0481 11.7292 11.6157 12.048 11.2969C12.3668 10.978 12.7992 10.7989 13.25 10.7989H19.25C20.2977 10.7989 21.3024 11.2151 22.0431 11.9559C22.7839 12.6968 23.2001 13.7016 23.2001 14.7493V23.2001H21.3V18.6996H3.70005V23.2001H1.80005V7.99862C1.80051 7.82675 1.84758 7.65769 1.93624 7.51046C2.02483 7.36336 2.15203 7.24281 2.30354 7.16203ZM13.45 12.699V16.7995H21.3V14.7493C21.3 14.2055 21.0841 13.684 20.6996 13.2995C20.3152 12.915 19.7937 12.699 19.25 12.699H13.45ZM13.25 16.9995H21.5V14.7493C21.5 14.1525 21.263 13.5801 20.841 13.1581C20.4191 12.7361 19.8468 12.499 19.25 12.499H13.25V16.9995Z" fill="black"/>
</svg>
