<svg width="24" height="24" viewBox="0 0 24 24" fill="none" xmlns="http://www.w3.org/2000/svg">
<path fill-rule="evenodd" clip-rule="evenodd" d="M0.231964 4.71528C0.0833757 4.86396 -6.41853e-05 5.06557 3.70457e-08 5.27577C6.42593e-05 5.48597 0.0836275 5.68753 0.232306 5.83611C0.380985 5.9847 0.582601 6.06814 0.792801 6.06808C1.003 6.06801 1.20457 5.98445 1.35315 5.83577L1.91341 5.27553L4.71467 8.07675L2.47366 10.3184C2.39798 10.3915 2.33762 10.479 2.2961 10.5756C2.25457 10.6723 2.23272 10.7763 2.23181 10.8815C2.2309 10.9867 2.25095 11.0911 2.29079 11.1884C2.33064 11.2858 2.38947 11.3743 2.46388 11.4487C2.53828 11.5231 2.62675 11.5819 2.72413 11.6218C2.82151 11.6616 2.92586 11.6817 3.03107 11.6807C3.13628 11.6798 3.24026 11.658 3.33694 11.6165C3.43362 11.5749 3.52106 11.5146 3.59416 11.4389L4.71467 10.3184L14.2417 19.8453C14.7869 20.3905 15.4792 20.7649 16.234 20.9225C16.9887 21.0802 17.773 21.0143 18.4908 20.7329L19.2853 21.5267C19.482 21.7235 19.727 21.865 19.9957 21.937C20.2644 22.009 20.5474 22.009 20.8161 21.937L22.6468 23.7677C22.7204 23.8413 22.8078 23.8997 22.9039 23.9396C23.0001 23.9794 23.1031 24 23.2072 24C23.3113 24 23.4143 23.9796 23.5105 23.9398C23.6067 23.9 23.6941 23.8416 23.7677 23.768C23.8413 23.6945 23.8997 23.6071 23.9396 23.511C23.9794 23.4148 24 23.3118 24 23.2077C24 23.1036 23.9796 23.0006 23.9398 22.9044C23.9 22.8082 23.8416 22.7208 23.768 22.6472L21.9366 20.8158C22.0086 20.547 22.0085 20.2641 21.9363 19.9953C21.8642 19.7266 21.7225 19.4817 21.5257 19.2851L20.7325 18.4913C21.0141 17.7734 21.0802 16.989 20.9227 16.2341C20.7651 15.4793 20.3908 14.7868 19.8456 14.2415L10.3186 4.7146L11.4397 3.59411C11.5134 3.52049 11.5718 3.4331 11.6116 3.33691C11.6514 3.24073 11.672 3.13763 11.672 3.03352C11.672 2.92941 11.6514 2.82632 11.6116 2.73014C11.5718 2.63395 11.5134 2.54656 11.4397 2.47294C11.3661 2.39932 11.2787 2.34092 11.1825 2.30108C11.0864 2.26124 10.9833 2.24073 10.8792 2.24073C10.775 2.24073 10.6719 2.26124 10.5758 2.30108C10.4796 2.34092 10.3922 2.39932 10.3186 2.47294L8.07755 4.7146L5.27629 1.91338L5.83586 1.35313C5.90947 1.27956 5.96788 1.19221 6.00774 1.09607C6.0476 0.999922 6.06813 0.896868 6.06816 0.79279C6.06819 0.688711 6.04773 0.585645 6.00793 0.489476C5.96812 0.393308 5.90977 0.30592 5.8362 0.232303C5.76262 0.158686 5.67527 0.10028 5.57913 0.0604219C5.48298 0.0205633 5.37993 3.18345e-05 5.27585 3.6991e-08C5.17177 -3.17605e-05 5.0687 0.0204365 4.97253 0.0602364C4.87636 0.100036 4.78897 0.158388 4.71535 0.231961L0.231964 4.71528ZM7.10841 5.68304L4.30715 2.88182L2.88255 4.3064L5.68381 7.10762L7.10841 5.68304ZM9.3501 5.68304L5.68312 9.34997L8.70081 12.3676L12.3678 8.70069L9.3501 5.68373V5.68304ZM9.822 13.4888L11.5028 15.1695L12.776 13.8963C12.8496 13.8227 12.937 13.7644 13.0332 13.7246C13.1293 13.6848 13.2324 13.6643 13.3365 13.6643C13.4406 13.6644 13.5436 13.6849 13.6398 13.7248C13.7359 13.7646 13.8233 13.823 13.8968 13.8966C13.9704 13.9703 14.0288 14.0577 14.0686 14.1538C14.1084 14.25 14.1288 14.3531 14.1288 14.4571C14.1288 14.5612 14.1082 14.6643 14.0684 14.7604C14.0285 14.8566 13.9701 14.9439 13.8965 15.0175L12.6239 16.2907L13.7445 17.4112L15.017 16.1373C15.0906 16.0637 15.178 16.0053 15.2742 15.9654C15.3704 15.9256 15.4735 15.9051 15.5776 15.9051C15.6817 15.9051 15.7848 15.9256 15.881 15.9654C15.9772 16.0053 16.0646 16.0637 16.1382 16.1373C16.2118 16.2109 16.2702 16.2983 16.3101 16.3945C16.3499 16.4907 16.3704 16.5938 16.3704 16.6979C16.3704 16.802 16.3499 16.9051 16.3101 17.0013C16.2702 17.0974 16.2118 17.1848 16.1382 17.2585L14.865 18.5317L15.2102 18.8769C15.5671 19.2339 16.0204 19.4789 16.5146 19.582C17.0088 19.685 17.5224 19.6416 17.9922 19.457L19.4572 17.992C19.6418 17.5221 19.6851 17.0085 19.5819 16.5143C19.4788 16.0201 19.2336 15.5668 18.8764 15.2099L13.4883 9.82186L9.822 13.4888ZM20.5764 20.2754C20.5707 20.2677 20.5645 20.2604 20.5579 20.2535L19.9935 19.6891C19.8975 19.7959 19.7957 19.8974 19.6887 19.9932L20.2531 20.5583C20.2599 20.565 20.2673 20.5712 20.275 20.5768C20.3461 20.4507 20.4503 20.3465 20.5764 20.2754Z" fill="#1B1B1B"/>
</svg>
