<svg width="16" height="18" viewBox="0 0 16 18" fill="none" xmlns="http://www.w3.org/2000/svg">
<path d="M2.90151 0L4.15857 1.431C4.16949 1.44375 5.21692 2.69175 5.04659 4.1535C4.93814 5.08575 4.34782 5.9475 3.29821 6.70575C0.211972 8.85975 -0.723362 11.7578 0.555534 14.5695C1.51853 16.686 3.62721 18 5.89531 18H7.21642L6.38881 16.7917C5.72789 15.9113 5.74099 14.9047 5.89822 14.1547C7.0228 15.0315 8.33664 14.9198 9.24941 14.3197C10.0865 13.77 10.6797 12.7785 10.6994 11.5958C10.8871 11.9018 11.0415 12.258 11.1528 12.6532C11.4746 13.8015 11.4352 15.5527 10.2684 16.7092L9.05288 18H10.1986C10.8471 18 11.4978 17.8755 12.078 17.5778C13.8904 16.6515 15.1133 14.9603 15.7574 12.5145C16.2822 10.5233 15.9467 7.893 14.8359 5.84625C12.2599 1.083 5.08517 0.2235 4.78091 0.189L2.90151 0ZM6.14279 1.96125C8.25875 2.45175 12.0103 3.7005 13.5672 6.5775C14.4858 8.27025 14.7857 10.401 14.349 12.141C13.9872 13.596 13.418 14.6835 12.6042 15.45C12.8917 14.3265 12.8124 13.1685 12.5518 12.237C12.0751 10.536 10.9447 9.30225 9.60025 9.01575L7.99671 8.67075L8.82869 10.1332C9.60025 11.472 9.18171 12.5858 8.46693 13.0545C7.89699 13.4295 6.96603 13.4647 6.21412 12.3285L5.52044 11.2785L4.96288 12.411C4.76999 12.804 4.02246 14.4983 4.52615 16.2787C3.46344 15.9233 2.38981 15.1283 1.83297 13.8383C0.652343 11.1097 2.42256 9.12825 4.12436 7.941C5.54228 6.91725 6.34077 5.697 6.49581 4.3155C6.59553 3.42225 6.4041 2.60925 6.14279 1.96125Z" fill="#1B1B1B"/>
</svg>
